PathFileType	4	(X/Y/Z)	9_coords_data.trc
DataRate	CameraRate	NumFrames	NumMarkers	Units	OrigDataRate	OrigDataStartFrame	OrigNumFrames
30.0	30.0	4	21	m	30.0	10	48
Frame#	Time	THUMB_TIP	THUMB_IP	THUMB_MCP	THUMB_CMC	INDEX_TIP	INDEX_DIP	INDEX_PIP	INDEX_MCP	MIDDLE_TIP	MIDDLE_DIP	MIDDLE_PIP	MIDDLE_MCP	RING_TIP	RING_DIP	RING_PIP	RING_MCP	PINKY_TIP	PINKY_DIP	PINKY_PIP	PINKY_MCP	WRIST
X1	Y1	Z1	X2	Y2	Z2	X3	Y3	Z3	X4	Y4	Z4	X5	Y5	Z5	X6	Y6	Z6	X7	Y7	Z7	X8	Y8	Z8	X9	Y9	Z9	X10	Y10	Z10	X11	Y11	Z11	X12	Y12	Z12	X13	Y13	Z13	X14	Y14	Z14	X15	Y15	Z15	X16	Y16	Z16	X17	Y17	Z17	X18	Y18	Z18	X19	Y19	Z19	X20	Y20	Z20	X21	Y21	Z21
8	0.2999999999999987	0.4672749524858906	-0.029236346057967433	-0.16907221939171213	0.4768569924834698	-0.026379937635925943	-0.14838344368092438	0.4784828146530987	-0.02885519829907368	-0.117398773488679	0.48157841236720766	-0.025298392431757577	-0.07304050022635944	0.5207421503749747	-0.014566505240609318	-0.098989505176722	0.5334439125458611	-0.004954603708780536	-0.10760789172506557	0.539351675231599	0.014233309084814127	-0.1227383965307357	0.4968581760940463	0.01359236752391968	-0.11999470941987	0.5086224317789628	-0.016674416303058326	-0.082683435815881	0.5254156870347251	-0.01021542013273058	-0.08474933668148532	0.5419628703975418	0.01010405235223688	-0.09750548463805808	0.5011716857924754	0.027555372921059584	-0.10276652920350227	0.5068503381705816	-0.005535397496584937	-0.07298115250230608	0.5240879852408056	-0.00025817543154893485	-0.07310136381083476	0.5398261973388448	0.018233604815377058	-0.07862791085727616	0.5045967300468331	0.03765775886061862	-0.08266619117788432	0.5098997629572333	-0.0046800474260098035	-0.06170305997269876	0.5259931819456347	-0.0001850518080926955	-0.05798864485606725	0.535352464781763	0.018595386802909952	-0.057273823639460986	0.5045028179093214	0.037220022670058306	-0.05879226944415539	0.46228308100186094	-0.023011742144276925	-0.051989820119430985
9	0.33333333333333187	0.4670837386128144	-0.02921862572780276	-0.16900749612622834	0.4767525328232103	-0.026354949222018087	-0.14836012885126493	0.4784548295439497	-0.02881625491726969	-0.1173784542653249	0.4816018370994704	-0.02523641072481353	-0.07302565211029488	0.5202830737632985	-0.01453729518790059	-0.09890479210497805	0.5331989411257605	-0.00509528068436671	-0.10739176638267833	0.5393963983083747	0.014053720998732144	-0.12245553390645358	0.49688450145942087	0.01361502014858007	-0.11996911844077085	0.5083706593404351	-0.01665639061012858	-0.08265601061132033	0.5252048167794318	-0.010286388582277595	-0.08466454676589874	0.5419073025026335	0.009951075561507094	-0.09734845648235724	0.5011983881131942	0.027550738944789432	-0.10275068371086749	0.5066783512524371	-0.005485588606964131	-0.07300059840082818	0.523946856830604	-0.0003091932762309124	-0.07306098446526965	0.5397701554418531	0.01812223292651327	-0.0785460303349087	0.5046092140959009	0.03765592758110459	-0.08265258738524806	0.5097460002655244	-0.004710339123275786	-0.06169424693620429	0.5258630883514214	-0.0002729456180833312	-0.058013348878459214	0.5352985739104643	0.018468088272371674	-0.057266837001854975	0.5045192561662359	0.037207264945883334	-0.05880316632812099	0.46228308100186083	-0.023011742144276925	-0.051989820119430985
10	0.3666666666666651	0.4668031819442168	-0.02929362780928324	-0.16895021394606669	0.47659549210457336	-0.02639032233931149	-0.14836668948907916	0.4784211945260738	-0.028810669521775023	-0.11738881463968898	0.48159004869610483	-0.02520970912099285	-0.07303927746689465	0.5196046056248631	-0.014515443856763288	-0.09886404110952429	0.532766314731784	-0.005266296997445297	-0.10718405888351734	0.5394102168506755	0.01379344619274403	-0.12217053902925612	0.4968802763402139	0.013600792164642828	-0.11997893263164161	0.5078734169081025	-0.016514507092568298	-0.08271481308410655	0.5248033836777268	-0.010363177394458467	-0.08459560231327756	0.541799984497566	0.0096962700814337	-0.09717112128996253	0.501214625468882	0.02751823534365061	-0.10277059516749354	0.5063616360813304	-0.005352709741808126	-0.07308505988304315	0.5236855164555662	-0.0003645013527985297	-0.07305430525759915	0.5396719860789079	0.017937690396611417	-0.0784988020341435	0.5046126743079321	0.03763596978066275	-0.08268727209532223	0.5094747335148303	-0.00465916595961724	-0.06163367705102618	0.5256384820549318	-0.0003307754679556796	-0.05802836584614279	0.5352247910618472	0.018334806424788797	-0.05731369723119806	0.5045221554154087	0.03719795121269254	-0.05886720425487879	0.46228308100186094	-0.023011742144276925	-0.051989820119430985
11	0.39999999999999825	0.4662824998839485	-0.029470018905078832	-0.1688328721722615	0.47625008633842203	-0.026486020742527594	-0.14834524236209334	0.47826935886282396	-0.028812020685993645	-0.11737215303062376	0.481596537948079	-0.02516339160903991	-0.07303810984490189	0.5191355872745735	-0.014443486097557634	-0.09892136379462868	0.5323954039629151	-0.005320132959530377	-0.10722447700055526	0.5392930396935399	0.01367276857537525	-0.12218115262092566	0.4967603293418084	0.013607351910772558	-0.1200363065202219	0.5072456010986428	-0.016119289759301436	-0.08291209068431737	0.5243001298981522	-0.010277800345894095	-0.08464991946177336	0.5416515283748642	0.009518554706592353	-0.09715763098460006	0.5011502428520475	0.02750788533490467	-0.10283017675740258	0.5059351381593298	-0.004965753730149625	-0.07320500640467487	0.5233486666781644	-0.00030066180498811157	-0.07312792298541249	0.5395452806763066	0.01782204820938138	-0.07855167221728732	0.5045563342592588	0.03764258286790756	-0.08275177560591107	0.5091785208879186	-0.004488096035303313	-0.06155354000438884	0.5254033528209648	-0.0002977816769885733	-0.058061249305878304	0.5351329033272767	0.018295607504217437	-0.05740265633496322	0.5044703694847287	0.03722348423400179	-0.05896084498101484	0.4622830810018609	-0.023011742144276925	-0.051989820119430985
